<svg xmlns="http://www.w3.org/2000/svg" xmlns:xlink="http://www.w3.org/1999/xlink" width="500" zoomAndPan="magnify" viewBox="0 0 375 112.499997" height="150" preserveAspectRatio="xMidYMid meet" version="1.0"><defs><g/><clipPath id="793228138d"><path d="M 0.828125 3 L 47 3 L 47 110 L 0.828125 110 Z M 0.828125 3 " clip-rule="nonzero"/></clipPath></defs><g clip-path="url(#793228138d)"><g fill="#ff521c" fill-opacity="1"><g transform="translate(-2.697623, 91.703672)"><g><path d="M 24.625 -87.765625 C 26.476562 -88.117188 28.96875 -88.296875 32.09375 -88.296875 C 35.226562 -88.296875 37.769531 -88.117188 39.71875 -87.765625 C 42.976562 -86.972656 45.445312 -86 47.125 -84.84375 C 48.800781 -83.695312 49.640625 -82.332031 49.640625 -80.75 C 49.640625 -79.425781 49.285156 -78.210938 48.578125 -77.109375 C 47.867188 -76.003906 46.546875 -74.742188 44.609375 -73.328125 C 42.492188 -71.660156 41.390625 -70.828125 41.296875 -70.828125 C 41.117188 -70.828125 40.988281 -71.617188 40.90625 -73.203125 C 40.90625 -74.265625 40.769531 -74.90625 40.5 -75.125 C 40.238281 -75.34375 39.535156 -75.5 38.390625 -75.59375 C 37.859375 -75.675781 37.109375 -75.71875 36.140625 -75.71875 C 35.171875 -75.71875 33.625 -75.671875 31.5 -75.578125 C 29.382812 -75.492188 28.285156 -75.320312 28.203125 -75.0625 C 28.109375 -74.96875 28.0625 -74.171875 28.0625 -72.671875 C 28.0625 -71.171875 28.109375 -68.921875 28.203125 -65.921875 L 28.328125 -61.03125 L 38.515625 -60.625 C 42.578125 -60.445312 45.160156 -60.222656 46.265625 -59.953125 C 47.367188 -59.691406 47.921875 -59.253906 47.921875 -58.640625 C 47.921875 -58.554688 47.875 -58.425781 47.78125 -58.25 C 47.519531 -56.832031 45.929688 -55.0625 43.015625 -52.9375 C 40.109375 -50.820312 36.140625 -49.546875 31.109375 -49.109375 L 28.328125 -48.578125 L 28.203125 -14.5625 C 28.203125 -5.382812 27.515625 1.296875 26.140625 5.484375 C 24.773438 9.679688 22.859375 12.925781 20.390625 15.21875 C 19.242188 16.1875 18.179688 16.800781 17.203125 17.0625 C 16.234375 17.332031 15.265625 17.46875 14.296875 17.46875 C 13.585938 17.46875 12.835938 17.425781 12.046875 17.34375 C 8.953125 16.894531 6.613281 15.613281 5.03125 13.5 C 4.414062 12.4375 4.109375 11.554688 4.109375 10.859375 C 4.109375 10.765625 4.148438 10.519531 4.234375 10.125 C 4.328125 9.726562 4.945312 9.441406 6.09375 9.265625 C 10.945312 8.648438 13.769531 5.117188 14.5625 -1.328125 C 15.09375 -3.878906 15.398438 -8.554688 15.484375 -15.359375 L 15.890625 -48.3125 L 12.703125 -47.921875 C 12.085938 -47.828125 11.472656 -47.78125 10.859375 -47.78125 C 8.117188 -47.78125 6.046875 -48.488281 4.640625 -49.90625 C 3.753906 -50.613281 3.3125 -51.582031 3.3125 -52.8125 C 3.3125 -52.988281 3.375 -53.539062 3.5 -54.46875 C 3.632812 -55.394531 4.273438 -56.300781 5.421875 -57.1875 C 5.867188 -57.625 7.128906 -58.171875 9.203125 -58.828125 C 11.273438 -59.492188 12.796875 -59.914062 13.765625 -60.09375 L 14.953125 -60.234375 L 15.09375 -68.3125 C 15.09375 -74.132812 15.132812 -77.679688 15.21875 -78.953125 C 15.3125 -80.234375 15.578125 -81.363281 16.015625 -82.34375 C 16.804688 -83.488281 17.992188 -84.546875 19.578125 -85.515625 C 21.171875 -86.484375 22.851562 -87.234375 24.625 -87.765625 Z M 24.625 -87.765625 "/></g></g></g></g><g fill="#ff521c" fill-opacity="1"><g transform="translate(45.353576, 91.703672)"><g><path d="M 9 -89.625 C 9.707031 -90.144531 10.457031 -90.40625 11.25 -90.40625 C 11.957031 -90.40625 12.972656 -90.050781 14.296875 -89.34375 C 15.617188 -88.644531 16.585938 -87.367188 17.203125 -85.515625 C 17.648438 -84.191406 17.894531 -82.140625 17.9375 -79.359375 C 17.976562 -76.578125 18 -74.878906 18 -74.265625 C 18 -69.671875 17.820312 -64.597656 17.46875 -59.046875 C 17.207031 -54.804688 16.898438 -48.453125 16.546875 -39.984375 L 16.28125 -28.984375 L 18 -27.9375 C 19.0625 -27.132812 20.875 -26.644531 23.4375 -26.46875 C 25.988281 -26.207031 27.265625 -25.859375 27.265625 -25.421875 C 27.265625 -24.710938 26.78125 -23.382812 25.8125 -21.4375 C 24.84375 -19.5 23.914062 -18.046875 23.03125 -17.078125 C 21 -14.960938 19.253906 -13.769531 17.796875 -13.5 C 16.347656 -13.238281 15.359375 -13.109375 14.828125 -13.109375 C 13.054688 -13.109375 11.265625 -13.703125 9.453125 -14.890625 C 7.648438 -16.078125 6.175781 -18.085938 5.03125 -20.921875 C 4.414062 -22.328125 4.0625 -23.691406 3.96875 -25.015625 C 3.882812 -26.335938 3.84375 -29.648438 3.84375 -34.953125 C 3.925781 -43.679688 4.5 -57.179688 5.5625 -75.453125 C 5.820312 -79.867188 6.21875 -83.15625 6.75 -85.3125 C 7.28125 -87.476562 8.03125 -88.914062 9 -89.625 Z M 9 -89.625 "/></g></g></g><g fill="#ff521c" fill-opacity="1"><g transform="translate(71.166074, 91.703672)"><g><path d="M 21.046875 -68.4375 C 23.335938 -69.320312 25.765625 -69.765625 28.328125 -69.765625 C 28.941406 -69.765625 30.242188 -69.675781 32.234375 -69.5 C 34.222656 -69.320312 35.96875 -68.570312 37.46875 -67.25 C 37.988281 -66.800781 38.335938 -66.578125 38.515625 -66.578125 C 38.691406 -66.578125 39.046875 -66.753906 39.578125 -67.109375 C 40.367188 -67.734375 41.253906 -68.046875 42.234375 -68.046875 C 42.929688 -68.046875 43.941406 -67.800781 45.265625 -67.3125 C 46.597656 -66.820312 47.660156 -65.65625 48.453125 -63.8125 C 48.984375 -62.832031 49.269531 -61.945312 49.3125 -61.15625 C 49.351562 -60.363281 49.375 -59.742188 49.375 -59.296875 C 49.375 -57.710938 49.285156 -54.800781 49.109375 -50.5625 C 48.753906 -46.6875 48.578125 -43.46875 48.578125 -40.90625 C 48.578125 -38.34375 48.617188 -36.023438 48.703125 -33.953125 C 48.796875 -31.878906 48.992188 -30.289062 49.296875 -29.1875 C 49.609375 -28.082031 50.050781 -27.109375 50.625 -26.265625 C 51.207031 -25.429688 51.875 -24.859375 52.625 -24.546875 C 53.375 -24.242188 54.410156 -23.957031 55.734375 -23.6875 C 57.492188 -23.519531 58.550781 -23.300781 58.90625 -23.03125 C 59.082031 -22.851562 59.171875 -22.546875 59.171875 -22.109375 C 59.171875 -21.578125 58.945312 -20.582031 58.5 -19.125 C 58.0625 -17.664062 57.445312 -16.453125 56.65625 -15.484375 C 54.625 -13.015625 52.375 -11.78125 49.90625 -11.78125 C 46.988281 -11.78125 43.8125 -13.457031 40.375 -16.8125 L 37.328125 -19.859375 L 32.96875 -17.34375 C 28.8125 -14.957031 24.660156 -13.765625 20.515625 -13.765625 C 19.984375 -13.765625 18.414062 -13.851562 15.8125 -14.03125 C 13.207031 -14.207031 10.492188 -16.015625 7.671875 -19.453125 C 5.734375 -21.578125 4.566406 -23.34375 4.171875 -24.75 C 3.773438 -26.164062 3.488281 -28.945312 3.3125 -33.09375 C 3.3125 -33.707031 3.3125 -34.328125 3.3125 -34.953125 C 3.3125 -45.003906 5.34375 -53.078125 9.40625 -59.171875 C 10.632812 -60.929688 12.375 -62.691406 14.625 -64.453125 C 16.875 -66.222656 19.015625 -67.550781 21.046875 -68.4375 Z M 35.734375 -50.96875 L 35.734375 -57.578125 L 31.5 -57.578125 C 29.03125 -57.578125 27.132812 -57.3125 25.8125 -56.78125 C 24.488281 -56.257812 23.078125 -55.160156 21.578125 -53.484375 C 18.835938 -50.566406 17.117188 -45.753906 16.421875 -39.046875 C 16.328125 -38.171875 16.28125 -37.378906 16.28125 -36.671875 C 16.28125 -34.992188 16.457031 -33.46875 16.8125 -32.09375 C 17.164062 -30.726562 18.003906 -29.429688 19.328125 -28.203125 C 19.859375 -27.492188 20.410156 -27.09375 20.984375 -27 C 21.554688 -26.914062 22.285156 -26.875 23.171875 -26.875 C 23.785156 -26.875 24.535156 -26.875 25.421875 -26.875 C 28.503906 -26.875 30.882812 -27.316406 32.5625 -28.203125 C 33.800781 -28.816406 34.460938 -29.273438 34.546875 -29.578125 C 34.640625 -29.890625 34.6875 -30.398438 34.6875 -31.109375 C 34.6875 -31.546875 34.6875 -32.078125 34.6875 -32.703125 C 34.6875 -34.640625 34.816406 -37.148438 35.078125 -40.234375 C 35.335938 -42.890625 35.554688 -46.46875 35.734375 -50.96875 Z M 35.734375 -50.96875 "/></g></g></g><g fill="#ff521c" fill-opacity="1"><g transform="translate(125.703545, 91.703672)"><g><path d="M 38.78125 -69.5 C 39.925781 -70.382812 41.207031 -70.828125 42.625 -70.828125 C 44.125 -70.828125 45.753906 -70.296875 47.515625 -69.234375 C 49.546875 -68.085938 50.847656 -66.765625 51.421875 -65.265625 C 51.992188 -63.765625 52.28125 -61.25 52.28125 -57.71875 C 52.28125 -55.425781 52.148438 -53.550781 51.890625 -52.09375 C 51.628906 -50.632812 50.96875 -48.40625 49.90625 -45.40625 C 48.757812 -41.957031 47.300781 -38.335938 45.53125 -34.546875 C 43.769531 -30.753906 42.050781 -27.535156 40.375 -24.890625 C 38.613281 -22.066406 36.691406 -19.53125 34.609375 -17.28125 C 32.535156 -15.03125 30.925781 -13.59375 29.78125 -12.96875 L 27.40625 -11.65625 L 24.359375 -12.96875 C 22.328125 -13.675781 20.867188 -14.5625 19.984375 -15.625 C 18.222656 -17.5625 16.546875 -20.867188 14.953125 -25.546875 C 13.367188 -30.222656 12.132812 -35.382812 11.25 -41.03125 C 10.539062 -46.0625 9.257812 -50.828125 7.40625 -55.328125 C 6.707031 -56.921875 5.738281 -57.984375 4.5 -58.515625 C 3.257812 -59.035156 2.351562 -59.671875 1.78125 -60.421875 C 1.207031 -61.171875 0.921875 -61.769531 0.921875 -62.21875 C 0.921875 -62.394531 0.96875 -62.570312 1.0625 -62.75 C 1.675781 -63.71875 2.953125 -64.597656 4.890625 -65.390625 C 6.835938 -66.179688 8.691406 -66.625 10.453125 -66.71875 C 11.078125 -66.71875 11.648438 -66.71875 12.171875 -66.71875 C 12.878906 -66.71875 13.453125 -66.671875 13.890625 -66.578125 C 14.335938 -66.492188 15.003906 -65.96875 15.890625 -65 C 17.742188 -63.320312 19.484375 -60.429688 21.109375 -56.328125 C 22.742188 -52.222656 23.914062 -47.523438 24.625 -42.234375 C 25.851562 -34.816406 26.78125 -31.109375 27.40625 -31.109375 C 27.664062 -31.109375 28.695312 -32.234375 30.5 -34.484375 C 32.3125 -36.734375 34.101562 -39.050781 35.875 -41.4375 C 37.113281 -43.195312 38.28125 -45.269531 39.375 -47.65625 C 40.476562 -50.039062 41.03125 -51.539062 41.03125 -52.15625 C 41.03125 -52.6875 40.148438 -53.394531 38.390625 -54.28125 C 36.273438 -55.15625 34.953125 -56.253906 34.421875 -57.578125 C 33.890625 -58.898438 33.625 -59.960938 33.625 -60.765625 C 33.625 -61.910156 33.972656 -63.296875 34.671875 -64.921875 C 35.378906 -66.554688 36.75 -68.082031 38.78125 -69.5 Z M 38.78125 -69.5 "/></g></g></g><g fill="#ff521c" fill-opacity="1"><g transform="translate(179.579158, 91.703672)"><g><path d="M 22.375 -68.171875 C 23.695312 -68.703125 24.929688 -68.96875 26.078125 -68.96875 C 26.429688 -68.96875 26.738281 -68.96875 27 -68.96875 C 27.351562 -68.96875 28.191406 -68.878906 29.515625 -68.703125 C 30.835938 -68.523438 31.851562 -68.4375 32.5625 -68.4375 C 37.851562 -68 42.195312 -65.925781 45.59375 -62.21875 C 49 -58.507812 51.140625 -53.476562 52.015625 -47.125 C 52.367188 -44.65625 52.546875 -42.316406 52.546875 -40.109375 C 52.546875 -35.253906 51.617188 -31.109375 49.765625 -27.671875 C 48.441406 -25.109375 46.546875 -22.703125 44.078125 -20.453125 C 41.609375 -18.203125 39.09375 -16.457031 36.53125 -15.21875 C 34.59375 -14.34375 33.140625 -13.816406 32.171875 -13.640625 C 31.203125 -13.460938 29.476562 -13.375 27 -13.375 C 23.644531 -13.457031 21 -13.765625 19.0625 -14.296875 C 16.144531 -15.085938 13.363281 -16.5625 10.71875 -18.71875 C 8.070312 -20.882812 6.046875 -23.335938 4.640625 -26.078125 C 3.929688 -27.578125 3.441406 -30.445312 3.171875 -34.6875 C 3.171875 -35.476562 3.171875 -36.269531 3.171875 -37.0625 C 3.171875 -45.976562 5.023438 -52.726562 8.734375 -57.3125 C 9.878906 -58.8125 11.953125 -60.707031 14.953125 -63 C 17.953125 -65.300781 20.425781 -67.023438 22.375 -68.171875 Z M 33.359375 -53.21875 C 30.617188 -53.925781 27.882812 -54.5 25.15625 -54.9375 L 20.78125 -55.328125 L 19.0625 -52.15625 C 18 -50.65625 17.070312 -48.335938 16.28125 -45.203125 C 15.488281 -42.066406 15.09375 -39.3125 15.09375 -36.9375 C 15.09375 -33.582031 15.90625 -31.085938 17.53125 -29.453125 C 19.164062 -27.816406 21.75 -27 25.28125 -27 C 27.3125 -27 28.988281 -27.375 30.3125 -28.125 C 31.632812 -28.875 33.222656 -30.175781 35.078125 -32.03125 C 37.109375 -34.0625 38.472656 -35.976562 39.171875 -37.78125 C 39.878906 -39.59375 40.234375 -41.914062 40.234375 -44.75 C 40.328125 -45.539062 40.375 -46.242188 40.375 -46.859375 C 40.375 -47.648438 40.285156 -48.332031 40.109375 -48.90625 C 39.929688 -49.476562 39.488281 -50.078125 38.78125 -50.703125 C 38.082031 -51.316406 37.222656 -51.84375 36.203125 -52.28125 C 35.191406 -52.726562 34.242188 -53.039062 33.359375 -53.21875 Z M 33.359375 -53.21875 "/></g></g></g><g fill="#ff521c" fill-opacity="1"><g transform="translate(231.733918, 91.703672)"><g><path d="M 7.8125 -67.25 C 9.394531 -68.039062 10.894531 -68.4375 12.3125 -68.4375 C 12.925781 -68.4375 13.828125 -68.28125 15.015625 -67.96875 C 16.210938 -67.664062 17.382812 -66.5 18.53125 -64.46875 L 19.71875 -62.609375 L 21.96875 -64.203125 C 23.207031 -65.085938 24.53125 -65.769531 25.9375 -66.25 C 27.351562 -66.738281 28.328125 -66.984375 28.859375 -66.984375 C 29.035156 -66.984375 29.164062 -66.9375 29.25 -66.84375 C 29.695312 -66.582031 32.210938 -66.320312 36.796875 -66.0625 L 43.953125 -65.65625 L 42.75 -62.75 C 42.132812 -61.332031 41.1875 -59.875 39.90625 -58.375 C 38.625 -56.875 37.28125 -55.726562 35.875 -54.9375 C 34.632812 -54.226562 31.898438 -53.875 27.671875 -53.875 L 21.4375 -53.875 L 21.1875 -45.796875 C 20.5625 -34.410156 19.960938 -26.773438 19.390625 -22.890625 C 18.816406 -19.015625 17.867188 -16.367188 16.546875 -14.953125 C 15.835938 -14.160156 15.195312 -13.695312 14.625 -13.5625 C 14.050781 -13.4375 13.191406 -13.375 12.046875 -13.375 C 10.898438 -13.375 10.015625 -13.4375 9.390625 -13.5625 C 8.773438 -13.695312 8.160156 -14.070312 7.546875 -14.6875 C 6.660156 -15.570312 6.0625 -16.410156 5.75 -17.203125 C 5.445312 -18.003906 5.296875 -19.175781 5.296875 -20.71875 C 5.296875 -22.257812 5.472656 -24.972656 5.828125 -28.859375 C 6.535156 -36.535156 6.929688 -42.023438 7.015625 -45.328125 C 7.097656 -48.640625 7.140625 -50.785156 7.140625 -51.765625 C 7.140625 -55.023438 6.941406 -56.894531 6.546875 -57.375 C 6.148438 -57.863281 5.53125 -58.109375 4.6875 -58.109375 C 3.851562 -58.109375 3.21875 -57.929688 2.78125 -57.578125 C 2.601562 -57.316406 2.425781 -57.1875 2.25 -57.1875 C 1.988281 -57.1875 1.8125 -57.539062 1.71875 -58.25 C 1.71875 -58.425781 1.71875 -58.644531 1.71875 -58.90625 C 1.71875 -59.519531 1.804688 -60.179688 1.984375 -60.890625 C 2.867188 -63.628906 4.8125 -65.75 7.8125 -67.25 Z M 7.8125 -67.25 "/></g></g></g><g fill="#ff521c" fill-opacity="1"><g transform="translate(272.23985, 91.703672)"><g><path d="M 21.046875 -68.4375 C 23.335938 -69.320312 25.765625 -69.765625 28.328125 -69.765625 C 28.941406 -69.765625 30.242188 -69.675781 32.234375 -69.5 C 34.222656 -69.320312 35.96875 -68.570312 37.46875 -67.25 C 37.988281 -66.800781 38.335938 -66.578125 38.515625 -66.578125 C 38.691406 -66.578125 39.046875 -66.753906 39.578125 -67.109375 C 40.367188 -67.734375 41.253906 -68.046875 42.234375 -68.046875 C 42.929688 -68.046875 43.941406 -67.800781 45.265625 -67.3125 C 46.597656 -66.820312 47.660156 -65.65625 48.453125 -63.8125 C 48.984375 -62.832031 49.269531 -61.945312 49.3125 -61.15625 C 49.351562 -60.363281 49.375 -59.742188 49.375 -59.296875 C 49.375 -57.710938 49.285156 -54.800781 49.109375 -50.5625 C 48.753906 -46.6875 48.578125 -43.46875 48.578125 -40.90625 C 48.578125 -38.34375 48.617188 -36.023438 48.703125 -33.953125 C 48.796875 -31.878906 48.992188 -30.289062 49.296875 -29.1875 C 49.609375 -28.082031 50.050781 -27.109375 50.625 -26.265625 C 51.207031 -25.429688 51.875 -24.859375 52.625 -24.546875 C 53.375 -24.242188 54.410156 -23.957031 55.734375 -23.6875 C 57.492188 -23.519531 58.550781 -23.300781 58.90625 -23.03125 C 59.082031 -22.851562 59.171875 -22.546875 59.171875 -22.109375 C 59.171875 -21.578125 58.945312 -20.582031 58.5 -19.125 C 58.0625 -17.664062 57.445312 -16.453125 56.65625 -15.484375 C 54.625 -13.015625 52.375 -11.78125 49.90625 -11.78125 C 46.988281 -11.78125 43.8125 -13.457031 40.375 -16.8125 L 37.328125 -19.859375 L 32.96875 -17.34375 C 28.8125 -14.957031 24.660156 -13.765625 20.515625 -13.765625 C 19.984375 -13.765625 18.414062 -13.851562 15.8125 -14.03125 C 13.207031 -14.207031 10.492188 -16.015625 7.671875 -19.453125 C 5.734375 -21.578125 4.566406 -23.34375 4.171875 -24.75 C 3.773438 -26.164062 3.488281 -28.945312 3.3125 -33.09375 C 3.3125 -33.707031 3.3125 -34.328125 3.3125 -34.953125 C 3.3125 -45.003906 5.34375 -53.078125 9.40625 -59.171875 C 10.632812 -60.929688 12.375 -62.691406 14.625 -64.453125 C 16.875 -66.222656 19.015625 -67.550781 21.046875 -68.4375 Z M 35.734375 -50.96875 L 35.734375 -57.578125 L 31.5 -57.578125 C 29.03125 -57.578125 27.132812 -57.3125 25.8125 -56.78125 C 24.488281 -56.257812 23.078125 -55.160156 21.578125 -53.484375 C 18.835938 -50.566406 17.117188 -45.753906 16.421875 -39.046875 C 16.328125 -38.171875 16.28125 -37.378906 16.28125 -36.671875 C 16.28125 -34.992188 16.457031 -33.46875 16.8125 -32.09375 C 17.164062 -30.726562 18.003906 -29.429688 19.328125 -28.203125 C 19.859375 -27.492188 20.410156 -27.09375 20.984375 -27 C 21.554688 -26.914062 22.285156 -26.875 23.171875 -26.875 C 23.785156 -26.875 24.535156 -26.875 25.421875 -26.875 C 28.503906 -26.875 30.882812 -27.316406 32.5625 -28.203125 C 33.800781 -28.816406 34.460938 -29.273438 34.546875 -29.578125 C 34.640625 -29.890625 34.6875 -30.398438 34.6875 -31.109375 C 34.6875 -31.546875 34.6875 -32.078125 34.6875 -32.703125 C 34.6875 -34.640625 34.816406 -37.148438 35.078125 -40.234375 C 35.335938 -42.890625 35.554688 -46.46875 35.734375 -50.96875 Z M 35.734375 -50.96875 "/></g></g></g></svg>